<?xml version="1.0" encoding="utf-8"?>
<!-- Generator: Adobe Illustrator 26.5.0, SVG Export Plug-In . SVG Version: 6.00 Build 0)  -->
<svg version="1.1" xmlns="http://www.w3.org/2000/svg" xmlns:xlink="http://www.w3.org/1999/xlink" x="0px" y="0px"
	 viewBox="0 0 2500 2000" style="enable-background:new 0 0 2500 2000;" xml:space="preserve">
<style type="text/css">
	.st0{fill:#FF0000;}
	.st1{fill:none;stroke:#000000;stroke-miterlimit:10;}
	.st2{fill:#A16D67;fill-opacity:0;stroke:#000000;stroke-miterlimit:10;}
	.st3{fill:none;stroke:#000000;stroke-width:2;stroke-miterlimit:10;}
	.st4{fill:none;}
	.st5{font-family:'ArialMT';}
	.st6{font-size:9.3235px;}
	.st7{font-family:'SourceSansPro-Regular';}
	.st8{font-size:160.9013px;}
	.st9{font-size:162.5313px;}
	.st10{font-size:164.1002px;}
	.st11{font-size:165.3428px;}
	.st12{font-size:166.535px;}
</style>
<g id="Layer_2">
	<path class="st0" d="M2309.31,942.91c-1.87-12.36-2.71-22.44-1.72-34.9c0.7-8.8-0.95-19.44-2.33-28c0.45,2.84-0.52-0.36-1.29-2.88
		c-1.15-3.81-1.87-7.67-2.31-11.61c-0.67-5.91-0.44-11.7,0.96-17.53c0.31-1.29,0.84-2.53,1.53-3.74c-0.22-1.12-0.35-2.3-0.24-3.62
		c0.09-1.16,0.27-2.35,0.54-3.52c0,0,0-0.01-0.01-0.01h-0.01c0-0.01,0-0.01,0-0.02c-0.31-0.62-0.57-1.27-0.77-1.95
		c-1.46-1.95-2.42-4.35-2.63-7.2c-0.44-6.04-1-12.08-1.01-18.13c0-0.2,0.04-0.37,0.05-0.55c-1.44-1.57-2.55-3.62-3.17-6.23
		c-2.61-11.16-5.01-22.31-7.17-33.55c-1.36-7.11-4.5-16.56-2.76-24.23c-0.62-2.41-1.1-4.85-1.47-7.32c-0.95-3.05-1.5-6.12-1.87-9.25
		c-2.17-5.47-3.98-11.18-5.43-16.76c-0.72-2.75-0.43-5.36,0.54-7.68c-0.01-0.09-0.02-0.19-0.03-0.27
		c-7.02-10.87-9.05-23.08-14.28-34.53c-6.05-13.22-11.01-26.17-16.01-39.72c-5.07-13.72-11.17-27.28-17.65-40.45
		c-5.88-11.93-13.48-25.11-15.48-38.29c-0.02-0.15-0.01-0.29-0.03-0.44c-0.14-0.16-0.25-0.29-0.4-0.47
		c-2.24-2.67-3.39-4.99-4.39-8.06c-0.44-0.31-1.08-0.9-2.05-1.97c-4.42-4.85-1.41-2.28-2.03-3.56c-2.24-4.64-3.49-10.01-6.42-14.35
		c-10-14.85-16.51-28.12-27.35-43.62c-5.15-7.37-9.01-15.57-13.71-23.22c-5.71-9.3-13.25-16.74-19.61-25.62
		c-5.77-8.04-10.59-16.62-16.22-24.65c-0.18-0.24-0.31-0.45-0.42-0.63c-0.09-0.06-0.17-0.09-0.29-0.17
		c-2.89-1.78-5.87-3.23-8.53-5.48c-0.94-0.8-1.78-1.6-2.58-2.41c-4.52-2.7-8.14-7-10.95-11.02c-0.49-0.68-0.96-1.37-1.45-2.05
		c-2.03-1.72-4.83-4.21-4.73-4.11c-5.45-5.37-12.26-13.46-16.58-22.04c-1.11-1.29-2.04-2.6-2.66-3.84
		c-0.58-1.16-1.03-2.34-1.34-3.52c-3.2-0.81-6.07-2.53-7.57-5.41c-1.19-2.29-1.87-4.52-1.9-6.75
		c-13.4-11.87-27.96-23.33-37.71-37.81c-4.23-3.48-8.22-7.22-11.3-11.57c-3.15-0.27-6.16-1.38-8.62-3.13
		c-3.33-1.9-5.28-4.89-5.96-8.13c-2.84-0.93-5.53-2.71-7.66-5.69c-0.4-0.55-0.76-1.11-1.09-1.67c-0.65-0.96-1.34-1.86-2.08-2.68
		c-6.46-2.57-12.52-7.21-16.45-12.75c-4.14-1.26-7.81-4.23-9.88-7.86c-1.25-1.16-2.55-2.39-3.31-3.11c0.14,0.14,0.23,0.28,0.37,0.41
		c-1.4-1.36-1.22-1.21-0.37-0.41c-0.68-0.69-1.27-1.41-1.77-2.15c-10.92-6.02-20.5-14.7-30.63-21.44
		c-12.26-8.15-18.85-12.84-29.22-20.39c-1.02-0.45-2.05-1.01-3.03-1.73c-1.77-1.13-3.28-2.51-4.52-4.17
		c-0.23-0.24-0.41-0.5-0.62-0.75c-0.03-0.02-0.06-0.04-0.08-0.05c-7.08-0.81-14.04-4.51-18.18-9.91c-0.52-0.3-1.03-0.62-1.54-0.95
		c-2.44-1.6-4.22-3.56-5.42-5.7c-3.69-2.25-7.33-4.76-10.97-7.01c-1.06-0.41-2.1-0.83-3.09-1.28c-0.01,0.03-0.03,0.07-0.04,0.09
		c-1.5-0.68-3.03-1.39-4.54-2.12c-3.56-0.29-7.23-1.64-10.64-4.44c-2.77-2.27-4.89-4.52-7.14-7.28c-0.06-0.08-0.09-0.17-0.16-0.24
		c-2.46-0.29-4.97-1.11-7.46-2.61c-0.78-0.48-1.51-1-2.26-1.51c-0.23-0.06-0.45-0.13-0.69-0.2c0.06,0.22-0.37,0.02-0.64-0.19
		c-2.19-0.7-4.31-1.81-6.28-3.37c-3.36-1.69-6.84-3.3-10.03-5.29c-1.36-0.49-2.65-1.12-3.87-1.84c-3.05-0.87-5.62-1.83-8.17-4.07
		c-1.37-0.93-2.61-1.85-3.72-2.65c-0.68,0.28-9.12-2.75-10.16-3.2c-2-0.85-9.14-4.8-7.39-3.97c-6.37-3.18-10.8-4.79-16.58-8.7
		c-0.75-0.51-0.84-0.64-0.62-0.58c-1.17-0.59-3.77-1.51-2.46-0.95c0.31,0.12,0.6,0.25,0.91,0.38c-0.42-0.17-0.7-0.28-0.91-0.38
		c-4.76-1.92-9.33-3.93-13.82-6.35c-11.32-6.1-35.06-11.65-44.83-20c-0.02,0-0.03-0.01-0.04-0.01c-2.15-0.47-4.35-1.05-6.45-1.69
		c-4.19-1.28-8.33-2.91-12.27-4.75c-0.29-0.13-0.54-0.3-0.79-0.47c-1.56-0.18-6.2-1.89-3-1.44c-2.96-0.54-5.52-1.12-8.09-2.84
		c-2.74-0.36-5.37-1-8.13-1.94c-0.61-0.08-1.22-0.16-1.83-0.25c-7.19-0.19-13.68-0.29-20.65-4.01c-5.7-3.04-11.02-6.54-16.44-9.91
		c-2.52,0.33-5.14,0.08-7.4-0.75c-1.87-0.68-3.46-1.81-4.77-3.16c-8.41-1.6-16.64-3.97-25.04-5.64c-14.58-2.9-29.04-5.44-43.57-8.82
		c-9.14-2.13-18.43-3.55-27.43-6.3c-4.97-1.52-9.13-3.92-13.61-6.07c-6.61,2.84-14.27,3.1-20.87-0.71c-2.21-0.33-4.44-0.67-4.71-0.7
		c0.14,0.02,0.23,0.04,0.36,0.05c-1.44-0.22-3.28-0.52-3.95-0.68c-3.43-0.86-6.3-2.41-8.83-4.38c-0.38-0.02-0.77-0.04-1.14-0.06
		c-8.23-0.5-16.15-2.02-24.04-3.66c-5.56,1.12-15.13,2.63-22.81-1.2c-1.77,0.36-3.59,0.56-5.45,0.57c-3.07,0.06-6.13-0.4-9.07-1.22
		c-0.46-0.13-0.9-0.25-1.31-0.37c-3.87,0.44-9.23,0.48-11.24,0.48c-6.96-0.03-10.44-1.49-15.64-2.28c-0.69,0.04-4.56-0.15-5.56-0.12
		c-2.34,0.07-5.75,0.54-8.16,0.34c-6.69-0.58-13.07-2.82-19.59-4.21c-0.69,0.43-1.36,0.88-2.11,1.27c-4.69,2.4-10.26,3.46-15.6,2.87
		c0.37,0.48,0.74,0.96,1.1,1.44c9.66,7.8,16.74,17.5,24.92,26.84c1.08,1.23,2.1,2.5,3.17,3.74c0.43,0.14,0.89,0.24,1.31,0.44
		c1.59,0.48,2.98,1.29,4.15,2.44c1.26,1.07,2.14,2.34,2.66,3.8c0.27,0.48,0.44,0.98,0.6,1.47c0.01,0.01,0.02,0.01,0.03,0.02
		c1.24,0.8,2.45,1.64,3.62,2.52c-1.5-0.99-1.35-0.87,0.45,0.38c1.21,0.92,2.49,1.78,3.67,2.74c2.31,1.87,4.74,3.59,7.04,5.48
		c2.41,1.96,4.47,4.12,6.59,6.33c1.1,1.14,2.23,2.26,3.31,3.41c0.24,0.26,0.47,0.53,0.72,0.79c4.39,1.69,7.14,5.72,7.95,10.01
		c7.03,4.05-1.31-0.82,2.95,2.03c0.06,0.04,0.11,0.07,0.16,0.1c1.33,0.41,3.23,1.61,4.18,2.13c1.86,1.02,3.42,2.27,4.93,3.66
		c0.55,0.51,7.23,6.61,2.74,2.85c1,0.84,1.59,1.35,1.95,1.67c0.02-0.09,0.69,0.23,3.49,2.11c-3.69-2.47,2.05,1.29,3.02,2.12
		c5.8,4.97,1.55,1.68,2.05,2.28c1.93,2.35,3.26,4.18,4.64,6.77c0.18,0.35,0.34,0.64,0.49,0.92c0.06,0.08,0.16,0.18,0.21,0.24
		c0.18,0.13,0.36,0.25,0.54,0.39c-0.2-0.21,3.78,2.41,4.28,2.69c-0.54-0.41-1.15-0.84-2.04-1.45c1.81,1.25,2.26,1.58,2.04,1.45
		c0.94,0.7,1.6,1.31,2.65,2.41c2.65,2.78,3.44,4.76,5.12,8.05c-0.94-2.37-0.79-2.15,0.44,0.66c3.46,1.1,6.52,3.41,8.38,6.31
		c4.2,1.08,7.74,3.81,9.65,7.79c0.54,1.12,0.82,2.34,0.98,3.59c0.26,0.03,0.5,0.11,0.73,0.28c0.08,0.06,0.08,0.17,0.15,0.25
		c0.22,0.01,0.44,0.05,0.67,0.13c0.3,0.1,0.53,0.22,0.75,0.42c0.2,0.19,0.38,0.47,0.43,0.73c-0.04-0.1-0.09-0.2-0.14-0.3
		c0.24,0.44,0.31,0.89,0.08,1.35c-0.17,0.37-0.5,0.69-0.93,0.79c-0.02,0-0.04,0.01-0.06,0.01c0.02,0.06,0.05,0.1,0.07,0.16
		c0.07,0.24,0.07,0.49,0,0.72c-0.05,0.11-0.09,0.22-0.15,0.33c-0.09,0.16-0.22,0.29-0.38,0.38c-0.15,0.12-0.32,0.21-0.51,0.24
		c-0.2,0.06-0.4,0.07-0.59,0.03c-0.18-0.01-0.35-0.07-0.51-0.15c-0.05,0.24-0.09,0.49-0.18,0.73c-0.54,2.61-1.9,5.06-4.14,6.92
		c-0.99,0.7-1.98,1.4-2.97,2.1c3.73-2.63,3.64-2.57-0.24,0.18c-0.8,0.39-1.62,0.69-2.44,0.96c-0.12,0.08-0.24,0.16-0.36,0.25
		c-0.07,0.07-0.39,0.31-1.03,0.78c-0.03,0.03-0.06,0.05-0.09,0.08c-0.04,0.03-0.05,0.05-0.09,0.08c-0.57,0.42-0.89,0.65-1.02,0.74
		c-0.43,0.31-0.78,0.56-0.74,0.53c-0.03,0.03-0.05,0.04-0.08,0.06c-0.9,0.67-1.93,1.48-2.95,2.02c-0.63,0.34-1.29,0.62-1.95,0.89
		c0.41-0.17,0.71-0.28,0.9-0.37c0.36-0.16,0.51-0.21,0,0c-0.33,0.14-0.81,0.38-1.16,0.6c-0.08,0.06-0.39,0.2-0.7,0.35
		c-1.13,0.89-2.36,1.61-3.66,2.17c-1.75,3.47-4.34,6.39-7.98,8.76c-2.33,1.52-5.93,1.81-7.89,3.11c-0.45,0.3-0.75,0.49-0.94,0.61
		c1.02-0.59,4.59-2.46,3.87,0.35c-0.58,2.25-14.34,11.64-16.8,14.01c-13.88,13.31-31.05,23.02-44.92,36.28
		c-7.14,6.83-12.64,13.3-21.58,19.36c-6.3,4.27-13.09,8.53-18.41,13.76c-2.55,2.51-4.96,5.34-7.34,7.99
		c4.87-5.42,0.68-0.09-0.57,1.68c-0.49,0.69-1.05,1.34-1.56,2.02c0.27-0.01,0.52-0.08,0.8-0.07c1.51,0.02,2.87,0.29,4.14,0.74
		c2.84-2.32,7.1-3.16,10.74-2.27c0.7,0.17,1.45,0.45,2.2,0.78c0.65,0.19,1.28,0.43,1.91,0.67c2.24-0.01,4.45,0.45,6.41,1.38
		c0.5-0.08,0.99-0.12,1.43-0.02c0.72,0.17,1.4,0.39,2.07,0.63c0.07-0.02,0.12-0.05,0.2-0.07c3.38-0.97,4.53-0.16,8.89-0.08
		c0.06,0,0.09,0,0.15,0c-0.42-0.18-0.64-0.28-0.42-0.21c-5.94-1.94,3.44,0.2,0.42,0.21c0.17,0.07,0.37,0.15,0.58,0.23
		c1.02-0.26,2.12-0.43,3.37-0.39c1.67-0.05,3.71-0.11,5.81,0.07c1.24,0.05,2.48,0.13,3.75,0.38c-0.4-0.08,1.3,0.45,2.59,0.89
		c0.24-0.1,0.47-0.22,0.72-0.31c-0.21,0.14,5.09-1.34,7.26-1.14c1.88,0.19,3.67,0.73,5.29,1.53c1.89-0.03,3.77-0.06,5.7-0.06
		c5.46-0.01,2.42,0.31,1.98,0.29c2.78,0.12,5.63-0.03,8.39,0.17c5.28,0.38,5.49,0.36,11.26,2.55c0.15,0.06,0.38,0.19,0.64,0.36
		c0.33-0.05,0.8-0.06,1.51,0c3.43,0.27,6.02,0.45,9.22,1.67c0.73,0.28,1.25,0.53,1.67,0.76c3.56,0.35,8.08,1.17,8.02,1.16
		c1.22,0.23,6.46,1.85,7.55,2.23c3.31,0.86,7.16,1.49,10.45,2.37c-5.68-1.53,3.71,0.04,5.82,0.32c2.04,0.28,6.32,1.4,5.95,1.36
		c6.02,0.62,8.51-0.15,11.37,0.62c0.47,0.13,1.75,0.62,2.99,1.13c1.51,0.5,5.02,1.78,4.63,1.7c8.36,1.88,17.5,2.94,25.48,5.74
		c10.95,3.86,20.91,8.04,32.51,10.8c2.87,0.68,4.78,2.03,5.97,3.66c1.06,0.39,2.02,0.85,2.8,1.44c0.3,0.02,0.59,0.04,0.89,0.08
		c17.19,2.38,40.1,10.62,56.03,18.88c1.25,0.65,2.38,1.42,3.53,2.17c1.6,0.68,3.21,1.42,4.8,2.08c1.92,0.79,4,1.5,5.9,2.29
		c0.96,0.4,1.94,0.79,2.9,1.18c5.2,2.13-2.8-0.85,2.02,1.13c8.19,3.38,19.2,6,27.17,11.99c1.17,0.88,1.95,1.99,2.4,3.22
		c2.38,0.9,4.69,2.12,6.96,3.52c1.83-0.58,3.8-0.68,5.67-0.06c3.17,1.07,6.45,2.1,9.48,3.46c0.86,0.38,1.66,0.89,2.46,1.35
		c0.25,0.18,0.55,0.31,0.82,0.45c0.4,0.16,0.94,0.37,1.62,0.64c3.67,1.84,7.28,5.88,9.41,9.88c8.23,3.44,16.46,7.5,20.65,13.74
		c0.27,0.41,0.51,0.84,0.7,1.26c0.53,0.28,1.07,0.56,1.56,0.83c5.99,3.16,11.88,6.69,17.72,10.28c0.16,0.07,0.32,0.1,0.47,0.18
		c1.36,0.64,2.73,1.39,4.06,2.22c1.16,0.21,2.34,0.56,3.57,1.14c2.3,1.09,3.79,2.54,5.26,4.27c1.07,0.41,2.06,0.96,2.91,1.69
		c-1.49-2.36,6.09,5.61,0.31,0.23c-0.09-0.08-0.21-0.14-0.31-0.23c0.08,0.13,0.17,0.26,0.31,0.46c0.99,1.39,2.1,2.3,2.97,3.59
		c1.5,0.23,3.01,0.66,4.48,1.29c14.3,6.24,29.38,12.52,34.65,27.17c0.4,1.11,0.76,2.24,1.1,3.37c10.02,2.96,18.07,11.77,24.8,18.53
		c16.84,16.96,35.02,32.18,51.14,49.98c5.01,5.54,8.97,11.69,12.86,17.9c8.69,4.83,14.46,10.92,20.2,19.25
		c6.3,9.14,11.96,19.02,17.58,28.52c6.38,10.78,15.29,20.45,21.37,31.24c2.48,4.41,2.63,9.6,5.24,13.84
		c2.47,4.02,6.63,6.77,8.91,11.18c4.29,8.33,9.17,16.87,12.76,25.41c4.28,10.18,9.72,20.07,14.27,30.06
		c2.19,4.79,5.36,9.11,6.89,14.25c0.61,2.06,1.08,4.03,1.5,5.97c0.82,1.02,1.5,2.15,1.92,3.48c1.94,6.15,0.63,2.54-0.45,0.9
		c0.26,0.39,2.78,5.55,1.85,3.52c1.22,2.67,1.49,2.5,2.32,5.28c0.75,2.51,1.46,5.49,1.79,8.28c0.11,0.27,0.22,0.55,0.32,0.84
		c0.11,0.14,0.22,0.26,0.32,0.41c0.06,0.09,2.38,8.02,1.84,4.94c0.17,0.99,0.25,1.64,0.29,2.1c0.39,0.82,0.79,1.6,1.2,2.31
		c1.65,2.77,3.61,5.34,5.24,8.11c4.21,7.14,7.55,17.89,5.92,24.45c-0.04,0.18-0.08,0.33-0.12,0.5c0.68,1.44,1.2,2.99,2.06,4.77
		c1.78,3.64,1.26,7.15-0.51,9.88c0.78,2.93,1.37,5.89,1.81,8.83c1.39,9.48,5.01,18.16,6.76,27.61c1.51,8.15,1.32,16.52,2.81,24.7
		c5.34,29.26,10.96,55.6,4.95,83.72c0.22,3.15,0.36,6.31,0.27,9.47c-0.01,0.37-0.05,0.7-0.09,1.05c0.75,0.64,1.43,1.35,1.95,2.19
		c0.01,0.02,0.03,0.05,0.04,0.07c1.12,1.75,1.6,3.76,1.5,5.75c11.98,8.59,22.91,18.57,33.66,30.01
		c7.94,8.44,13.59,14.57,21.24,22.38c1.09,1.63,1.06,1.58-0.09-0.15c1.25,0.82,2.46,1.66,3.66,2.53c3.08,2.02,4.96,4.27,7.42,6.85
		c1.64,1.71,3.14,3.47,4.67,5.27c3.79,4.43,1.07,1.73,3,3.88c6.76,7.49,14.61,13.65,19.4,19.28c5.58,6.56,8.33,7.87,13.36,12.11
		c7.75,6.53,14.85,16.17,21.76,21.46c5.71,4.37,8.09,5,11.42,11.33c-3.52-6.69-0.84-2.14,0.84,1.85c4.62-6.47,13.84-13,17.26-15.56
		c10.13-7.55,20.86-13.98,30.1-22.53c19.62-18.16,39.26-36.08,59.33-53.88c9.42-8.36,18.8-16.89,28.65-24.8
		c5.04-4.04,10.98-9.58,17.33-14.43c-0.06-1.28,0.02-2.62,0.32-4.04c1.05-4.9,1.6-9.83,2.26-14.76c0.22-1.67,0.69-3.42,0.91-5.12
		C2309.47,945.48,2309.06,941.2,2309.31,942.91z"/>
</g>
<g id="Layer_1">
	<g>
		<polyline class="st1" points="1213.38,1665.32 1055.8,1793.21 1203.33,1930.16 		"/>
		<path class="st1" d="M1203.49,1930.17c-578.43-17.18-1031.6-446.13-1012.18-958.07"/>
		<path class="st1" d="M1213.53,1665.32c-413.16-12.27-736.86-318.66-722.99-684.34"/>
		<polyline class="st1" points="489.88,980.99 345.46,840.47 190.71,972.1 		"/>
		<polyline class="st1" points="1213.38,1665.32 1055.8,1793.21 1203.33,1930.16 		"/>
		<path class="st1" d="M1203.49,1930.17c-578.43-17.18-1031.6-446.13-1012.18-958.07"/>
		<path class="st1" d="M1213.53,1665.32c-413.16-12.27-736.86-318.66-722.99-684.34"/>
	</g>
	<g>
		<polyline class="st2" points="1266.15,1666.55 1113.28,1799.89 1268.06,1931.49 		"/>
		<polyline class="st2" points="2009.87,999.99 2160.55,1134.23 2309.27,998.3 		"/>
		<path class="st2" d="M2309.27,998.16c3.7,512.22-462.47,930.11-1041.21,933.38"/>
		<path class="st2" d="M2009.87,999.85c2.64,365.87-330.34,664.36-743.72,666.7"/>
	</g>
	<polyline class="st1" points="1286.62,275.45 1444.2,147.56 1296.67,10.61 	"/>
	<path class="st1" d="M1296.51,10.6c578.43,17.18,1031.6,446.13,1012.18,958.07"/>
	<path class="st1" d="M1286.47,275.45c413.16,12.27,736.86,318.66,722.99,684.34"/>
	<polyline class="st1" points="2010.11,959.78 2154.54,1100.3 2309.29,968.67 	"/>
	<polyline class="st1" points="1286.62,275.45 1444.2,147.56 1296.67,10.61 	"/>
	<path class="st1" d="M1296.51,10.6c578.43,17.18,1031.6,446.13,1012.18,958.07"/>
	<path class="st1" d="M1286.47,275.45c413.16,12.27,736.86,318.66,722.99,684.34"/>
	<g>
		<polyline class="st3" points="489.17,942.05 348.59,798.7 198.05,932.91 		"/>
		<path class="st3" d="M198.05,933.06C216.94,406.84,688.44-5.43,1251.17,12.23"/>
		<path class="st3" d="M489.17,942.19c13.49-375.87,350.28-670.35,752.23-657.73"/>
		<polyline class="st3" points="1241.4,283.86 1395.86,152.47 1251.17,11.69 		"/>
		<polyline class="st3" points="489.17,942.05 348.59,798.7 198.05,932.91 		"/>
		<path id="SVGID_x5F_1_x5F_" class="st4" d="M271.01,1134.23C289.9,608.02,761.4,195.75,1324.14,213.41"/>
		<text>		<textPath  xlink:href="#SVGID_x5F_1_x5F_" startOffset="43.232%">
<tspan  style="font-family:'AppleSymbols'; font-size:197.4903px;">Design</tspan>		</textPath>
</text>
		<path class="st3" d="M489.17,942.19c13.49-375.87,350.28-670.35,752.23-657.73"/>
	</g>
	<path id="SVGID_x5F_00000181058196332678298920000009850451277748734393_x5F_" class="st4" d="M1131.62,88.55
		c578.43,17.18,1031.6,446.13,1012.18,958.07"/>
	<text>	<textPath  xlink:href="#SVGID_x5F_00000181058196332678298920000009850451277748734393_x5F_" startOffset="48.515%">
<tspan  class="st7" style="font-size:131.6602px;">Build</tspan>	</textPath>
</text>
	<path id="SVGID_x5F_00000031928296801369282650000008908012047115139491_x5F_" class="st4" d="M2097.02,933.06
		c3.7,512.22-462.47,930.11-1041.21,933.38"/>
	<text>	<textPath  xlink:href="#SVGID_x5F_00000031928296801369282650000008908012047115139491_x5F_" startOffset="38.748%">
<tspan  class="st7" style="font-size:131.6602px;">Test</tspan>	</textPath>
</text>
	<text transform="matrix(-0.7 -0.6842 0.8022 -0.5971 639.2775 1512.8154)" class="st5 st6"> </text>
	<text transform="matrix(-0.6676 -0.7011 0.822 -0.5695 636.9186 1511.4308)" class="st7 st8">L</text>
	<text transform="matrix(-0.603 -0.7315 0.8576 -0.5143 584.6716 1456.5997)" class="st7 st9">e</text>
	<text transform="matrix(-0.5356 -0.7587 0.8896 -0.4568 536.0175 1397.6176)" class="st7 st10">a</text>
	<text transform="matrix(-0.4771 -0.7791 0.9135 -0.4069 492.0609 1334.6759)" class="st7 st11">r</text>
	<text transform="matrix(-0.4147 -0.7978 0.9353 -0.3537 464.1093 1290.0291)" class="st7 st12">n</text>
</g>
</svg>
