<?xml version="1.0" encoding="utf-8"?>
<!-- Generator: Adobe Illustrator 26.5.0, SVG Export Plug-In . SVG Version: 6.00 Build 0)  -->
<svg version="1.1" id="Layer_1" xmlns="http://www.w3.org/2000/svg" xmlns:xlink="http://www.w3.org/1999/xlink" x="0px" y="0px"
	 viewBox="0 0 2500 2000" style="enable-background:new 0 0 2500 2000;" xml:space="preserve">
<style type="text/css">
	.st0{fill:none;stroke:#000000;stroke-miterlimit:10;}
	.st1{fill:#A16D67;fill-opacity:0;stroke:#000000;stroke-miterlimit:10;}
	.st2{fill:#E98F24;}
	.st3{fill:none;stroke:#000000;stroke-width:2;stroke-miterlimit:10;}
	.st4{fill:none;}
	.st5{font-family:'ArialMT';}
	.st6{font-size:9.3235px;}
	.st7{font-family:'SourceSansPro-Regular';}
	.st8{font-size:160.9013px;}
	.st9{font-size:162.5313px;}
	.st10{font-size:164.1002px;}
	.st11{font-size:165.3428px;}
	.st12{font-size:166.535px;}
</style>
<g>
	<g>
		<polyline class="st0" points="1172.34,1693.78 1014.77,1821.67 1162.3,1958.62 		"/>
		<path class="st0" d="M1162.46,1958.63c-578.43-17.18-1031.6-446.13-1012.18-958.07"/>
		<path class="st0" d="M1172.5,1693.78c-413.16-12.27-736.86-318.66-722.99-684.34"/>
		<polyline class="st0" points="448.85,1009.45 304.42,868.94 149.67,1000.56 		"/>
		<polyline class="st0" points="1172.34,1693.78 1014.77,1821.67 1162.3,1958.62 		"/>
		<path class="st0" d="M1162.46,1958.63c-578.43-17.18-1031.6-446.13-1012.18-958.07"/>
		<path class="st0" d="M1172.5,1693.78c-413.16-12.27-736.86-318.66-722.99-684.34"/>
	</g>
	<g>
		<polyline class="st1" points="1225.11,1695.01 1072.25,1828.35 1227.03,1959.95 		"/>
		<polyline class="st1" points="1968.84,1028.45 2119.52,1162.69 2268.24,1026.76 		"/>
		<path class="st1" d="M2268.24,1026.62c3.7,512.22-462.47,930.11-1041.21,933.38"/>
		<path class="st1" d="M1968.84,1028.31c2.64,365.87-330.34,664.36-743.72,666.7"/>
	</g>
	<polyline class="st0" points="1245.59,303.91 1403.16,176.02 1255.63,39.07 	"/>
	<path class="st0" d="M1255.48,39.06c578.43,17.18,1031.6,446.13,1012.18,958.07"/>
	<path class="st0" d="M1245.43,303.91c413.16,12.27,736.86,318.66,722.99,684.34"/>
	<polyline class="st0" points="1969.08,988.24 2113.51,1128.76 2268.26,997.13 	"/>
	<polyline class="st0" points="1245.59,303.91 1403.16,176.02 1255.63,39.07 	"/>
	<path class="st0" d="M1255.48,39.06c578.43,17.18,1031.6,446.13,1012.18,958.07"/>
	<path class="st0" d="M1245.43,303.91c413.16,12.27,736.86,318.66,722.99,684.34"/>
	<g>
		<path class="st2" d="M451.54,966.91c0.01,0.05-1-4.39-0.29-1.95c-0.37-1.27-0.78-2.42-0.95-3.76c-0.72-5.74-1.05-12.44,0.01-18.14
			c0.62-3.33,1.43-6.63,2.09-9.95c0.29-1.46,0.32-3.14,0.75-4.56c0.74-1.7,0.93-2.08,0.56-1.14c0.22-0.38,0.4-0.69,0.53-0.94
			c-1.02-1.07-1.69-2.43-1.67-4.06c0.01-1.43,0.21-2.84,0.43-4.25c0-0.1,0-0.19,0-0.3c0-0.65,0.08-1.24,0.22-1.79
			c0.13-0.54,0.25-1.07,0.38-1.61c0.39-2.94,0.4-5.87,0.76-8.81c0.71-5.94,2.4-11.66,3.47-17.55c0.92-5.06,1.31-10.25,2.14-15.35
			c0.84-5.2,2.47-10.3,3.81-15.41c1.36-5.19,1.84-10.52,3.25-15.7c1.43-5.25,2.53-10.55,3.8-15.83c1.31-5.43,2.78-10.94,4.62-16.25
			c1.54-4.47,3.83-8.55,6.02-12.73c0.93-4.55,2.33-9.03,4.05-13.19c1.13-2.73,2.52-5.35,3.97-7.95c0.01-0.03,0.02-0.06,0.03-0.08
			c1.27-4.51,2.97-8.86,4.97-13.14c0.01-0.02,0.01-0.03,0.02-0.05c0.57-1.83,1.27-3.62,1.92-5.54c1.03-3.05,1.9-6.14,2.87-9.2
			c2.14-6.69,4.48-13.32,7.47-19.74c2.6-5.59,5.61-10.97,8.41-16.46c2.59-5.07,6.95-13.31,9.91-18.21
			c2.56-4.23,4.52-8.75,7.12-12.99c1.63-2.65,3.35-5.53,5.23-7.97c0.64-0.84,1.07-1.77,1.66-2.64c0.01-0.02,0.64-0.98,0.96-1.38
			c0.07-0.19,0.12-0.36,0.13-0.39c1.76-5.34,5.4-10.03,8.13-14.96c1.4-2.53,3.26-4.73,4.81-7.18c1.48-2.34,3.04-4.64,4.6-6.94
			c6.6-9.71,12.51-19.8,19.28-29.39c3.54-5.01,7.35-9.91,11.65-14.41c0.15-0.15,0.3-0.29,0.45-0.45c0.03-0.16,0.03-0.32,0.07-0.48
			c0.61-2.84,3.02-4.97,4.58-7.32c1.45-2.18,3.03-4.3,5.05-6.07c0.8-0.7,1.46-1.44,2.1-2.2c0.84-1.9,1.77-3.74,2.91-5.35
			c1.4-1.97,2.52-4.11,4.31-5.94c1.99-2.04,4.08-2.76,6.53-3.34c0.63-0.15,1.29-0.21,1.95-0.19c2.06-2.72,4.14-5.44,6.28-8.1
			c7.93-9.84,16.78-18.75,26.12-27.48c5.69-5.31,11.49-10.47,17.46-15.47c0.47-0.58,0.93-1.14,1.4-1.72
			c0.34-0.78,0.86-1.54,1.62-2.22c1.63-1.46,3.3-2.89,4.99-4.28c5.71-5.53,11.82-10.76,18.56-15c1.2-0.96,2.43-1.9,3.68-2.8
			c0.28-1.16,0.88-2.27,1.79-3.13c1.61-1.29,3.16-2.63,4.74-3.93c0.9-0.84,1.81-1.67,2.76-2.51c1.15-1.02,2.31-2.01,3.55-2.92
			c0.91-0.67,1.85-1.32,2.79-1.96c0.02-0.02,0.02-0.04,0.07-0.08c0.21-0.21,0.49-0.4,0.73-0.58c1.45-1.13,2.92-2.06,4.45-2.88
			c0.12-0.37,0.28-0.73,0.47-1.14c0.15-0.33,0.25-0.61,0.44-0.9c0.2-0.23,0.39-0.46,0.59-0.7c0.18-0.24,0.38-0.47,0.59-0.69
			c0.74-0.65,1.42-1.05,2.19-1.4c0,0-0.01,0-0.01,0c0,0,0.01,0,0.01,0c0.41-0.18,0.85-0.35,1.34-0.52c0.74-0.32,1.47-0.64,2.26-0.85
			c0.32-0.09,0.66-0.11,0.99-0.16c1.95-1.39,3.97-2.71,5.88-4.12c0.47-0.35,0.98-0.65,1.46-0.99c0.7-2.14,2.15-3.92,3.81-5.62
			c0.4-0.62,0.86-1.23,1.48-1.82c0.41-0.39,0.84-0.75,1.25-1.14c0.42-0.52,0.87-1.01,1.42-1.41c0.87-0.64,1.74-1.15,2.66-1.54
			c2.14-1.54,4.37-2.94,6.38-4.14c4.26-2.56,8.01-5.65,12.12-8.38c4.08-2.71,8.03-5.58,12.39-7.92c4.43-2.38,8.78-4.62,12.9-7.46
			c3.97-2.73,8.16-5.87,12.25-7.45c4.28-1.65,7.36-2.99,11.76-5.07c1.41-0.67,3.17-1.86,5.24-3c2.26-1.46,4.97-3.2,7.17-4.46
			c7.59-4.37,14.98-9.06,23.21-12.4c4.42-1.8,8.97-3.23,13.53-4.71c4.01-1.3,7.67-3.04,11.62-4.47c7.66-2.78,15.36-5.59,23.3-7.41
			c0.58-1.63,1.74-3.05,3.64-4.24c5.22-3.28,11.05-5.22,16.99-7.1c4.24-1.35,9.03-2.67,13.3-1.82c1.36-0.42,2.68-0.87,3.91-1.36
			c1.04-0.53,2.09-1.05,3.16-1.54c1.17-0.54,2.3-0.75,3.36-0.76c0.22-0.08,0.45-0.16,0.67-0.24c6.13-2.03,12.6-3.78,19.09-4.75
			c1.36-0.34,2.74-0.64,4.12-0.94c0.43-1.58,1.42-3.02,3.06-3.66c4.19-1.64,8.53-2.68,12.9-3.57c0.12-0.03,0.25-0.06,0.37-0.1
			c3.41-1.07,7.06-1.95,10.71-2.08c0.97-0.21,1.93-0.41,2.89-0.64c1.39-0.33,2.78-0.17,4.04,0.29c1.63-0.81,3.26-1.62,4.88-2.38
			c3.37-1.57,6.88-3.12,10.28-2.65c6.52-1.39,13.3-2.26,19.74-3.18c0.85-0.12,1.71-0.25,2.57-0.38c0,0,0,0,0.01,0
			c6.39-1.88,13.95-2.26,20.64-2.88c2.61-0.24,5.22-0.46,7.84-0.68c2.55-0.74,5.22-1.24,7.89-1.67c3.9-1.1,7.9-1.92,11.91-2.54
			c1.13-0.28,2.25-0.48,3.34-0.47c1.76,0.01,3.2,0.62,4.31,1.55c3.54-0.73,7.06-1.04,10.69-1.49c9.42-1.18,19.08-3.9,28.6-3.87
			c8.34,0.03,16.66-1.1,25.1-1.09c4.79,0.01,9.15-0.42,13.99,0.19c2.49,0.32,4.99,0.51,7.48,0.73c1.39-0.68,2.98-0.9,4.55-0.97
			c1.8-0.08,3.68,0.05,5.46,0.49c0.61-0.65,1.39-1.16,2.36-1.39c1.67-0.92,3.95-1.18,5.52-0.09c0.11,0.07,0.22,0.14,0.33,0.21
			c0.19,0.08,0.38,0.14,0.56,0.23c0.25,0.12,0.47,0.27,0.69,0.41c6-5.77,11.29-11.23,20.35-15.27c0,0,4.67-3.98,4.68-3.98
			c4.7-2.61-0.26-9.54,7.3-6.23c0.72-0.36,0.98-0.5,1.71-0.86c0.77-4.16,7.46-1.3,9.43-4.57c10.11-16.76,18.56-21.52,36.66-35.21
			c0.01-0.01,10.21-4.43,10.22-4.43c7.72-10.33,14.16-21.33,27.41-27.59c3.36-1.59,6.83-6.42,10.14-7.76c0,0-0.75,0.27-0.74,0.27
			c10.52-12.32,20.13-20.91,32.46-27.01c-0.32-0.83-2.96-2.32-3.26-3.16c-0.35-0.99-0.46-1.55-0.42-1.85
			c-0.07-0.11-0.18-0.19-0.24-0.3c-0.27-0.39-0.48-0.8-0.57-1.23c-0.03-0.12-0.04-0.25-0.05-0.37c-5.13-0.39-6.48-1.05-4.06-4.28
			c-2.87-2.26-5.44-4.67-7.88-7.16c-1.72,0.58-3.74,0.39-5.26-1.02c-5.1-4.72-9.64-9.9-14-15.22c-2.8-1.97-5.6-3.93-8.4-5.9
			l-5.88-6.92c-1.19-0.96-2.38-1.93-3.53-2.96c-6.68-6.12-12.01-12.97-16.02-20.51c-1.79-1.25-3.73-2.62-5.92-4.16
			c-5.92-4.66-11.31-10.09-15.84-16c-5.88-5.21-11.76-10.41-17.61-15.65c-0.85-0.76-1.33-1.81-1.47-2.89
			c-2.69-2.66-5.37-5.34-7.91-8.12c-2.99-3.29-6.15-6.44-9.57-9.36c-2.41-2.05-4.63-4.17-7.2-6.03c-1.22-0.89-2.33-1.79-3.37-2.86
			c-0.42-0.44-0.81-0.89-1.19-1.35c-0.32-0.39-0.52-0.63-0.66-0.81c-0.03-0.02-0.05-0.03-0.08-0.06c-0.05-0.05-0.11-0.09-0.16-0.14
			c-1.13-0.94-1.59-2.06-1.63-3.18c-2.23-0.22-4.5-0.6-6.76-1.08c-3.95,0.85-8.13,0.48-12.32-0.1c-0.49,0.15-1.09,0.34-1.58,0.5
			c-0.91,1.04-2.26,1.79-4.04,1.9c-11.3,0.69-22.51-1.33-33.53-1.38c-1.77-0.01-3.54-0.05-5.31-0.1c-9.04,0.47-18.07,0.85-27.1,1.37
			c-0.9,0.19-1.84,0.22-2.8,0.18c-2.7,0.17-5.4,0.34-8.1,0.54c-0.97,0.07-1.78-0.07-2.46-0.35c-2.03,0.08-4.07,0.12-6.12,0.16
			c-0.74,0.47-1.64,0.75-2.68,0.74c-2.76-0.03-5.51,0.03-8.26,0.07c-11.91,3.38-24.87,4.43-36.92,6.02
			c-13.52,1.79-27.06,3.31-40.63,4.73c-13.15,1.38-26.19,3.47-39.41,4.6c-2.97,0.4-7.81,1.05-10.78,1.45
			c-1.75,0.35-3.49,0.69-5.24,1.02c-0.56,0.67-1.35,1.21-2.41,1.51c-6.89,1.93-13.98,3.06-21.05,4.31
			c-3.91,0.69-7.84,1.39-11.77,2.01c-4.93,1.34-10.24,1.88-15.2,2.82c-1.34,0.25-2.68,0.55-4.02,0.82
			c-2.67,0.73-5.34,1.46-7.99,2.23c-2.15,0.62-4.3,1.21-6.46,1.81c-0.81,0.26-1.62,0.51-2.43,0.77c-3.02,0.96-6.06,1.74-8.84,2.76
			c-2.38,0.88-5.48,1.64-7.47,2.4c-3.06,1.17-6.09,2.2-9.45,2.27c-0.27,0.01-0.53-0.05-0.78-0.08c-0.8,0.1-1.61,0.17-2.44,0.2
			c-0.17,0.01-0.33-0.02-0.5-0.02c-0.28,0.07-0.56,0.14-0.84,0.21c-6.65,2.41-13.37,4.64-19.96,7.15
			c-3.99,1.52-8.02,2.97-12.05,4.42c-3.54,1.27-7.03,2.88-10.65,3.97c-6.07,3.33-13.66,4.64-20.28,6.89
			c-4.07,1.38-8.08,2.91-12.18,4.21c-2.7,0.86-5.15,1.97-7.67,3.02c-0.38,1.61-1.57,3.12-3.73,3.92c-2.58,0.95-5.32,1.51-7.96,2.37
			c-3.05,0.99-5.99,2.41-8.9,3.72c-0.92,0.42-1.82,0.6-2.67,0.6c-0.95,0.25-2.29,0.59-3.24,0.84c-2.21,1.5-4.38,3.04-6.74,4.37
			c-3.18,1.8-6.28,3.46-9.62,4.88c-2.61,1.97-5.55,3.68-8.77,4.51c-3.86,2.48-8.23,4.33-12.35,6.51c-2.41,1.27-4.64,1.93-7.21,2.85
			c0.85-0.2,0.38-0.01-1.42,0.59c0.88-0.39,0.43-0.22-1.33,0.49c-0.83,0.21-1.78,0.31-2.72,0.39c-1.61,0.79-3.27,1.51-4.99,2.11
			c-1.47,0.51-2.82,0.64-4.23,0.73c-0.43,0.12-1.08,0.31-1.51,0.44c-7.5,4.24-14.83,8.75-22.3,13.03c-0.19,0.27-0.41,0.52-0.68,0.72
			c-5.42,4.26-11.55,7.63-17.56,11.14c-5.99,3.51-11.41,7.61-18.12,9.98c-1.02,0.36-2.13,0.19-3.13-0.24
			c-1.52,0.92-3.04,1.83-4.53,2.76c-0.66,0.42-1.32,0.84-1.98,1.26c-3.64,2.48-7.27,4.98-10.78,7.64
			c-5.94,4.49-11.68,9.16-17.5,13.78c-1.57,1.25-3.29,1.52-4.8,1.18c-0.04,0.02-0.07,0.05-0.11,0.07c-0.05,0.04-0.12,0.09-0.32,0.23
			c-0.92,0.67-1.85,1.34-2.78,2c-0.57,0.4-1.14,0.8-1.72,1.19c-0.7,0.6-1.37,1.22-2.08,1.82c-2.48,2.08-4.94,4.14-7.62,6.03
			c-0.94,0.66-1.87,1.31-2.83,1.95c-0.16,0.11-0.38,0.33-0.45,0.41c0.04-0.04,0.1-0.07,0.14-0.11c-0.18,0.17-0.19,0.17-0.14,0.11
			c-0.32,0.28-0.65,0.54-1,0.79c-2.08,1.46-4.36,1.78-6.9,1.37c-0.08-0.01-0.15-0.05-0.23-0.07c-1.48,1-2.95,2.01-4.43,3.02
			c-7.29,8.83-16.42,16.67-27.02,23.39c-3.47,2.2-7.01,4.1-10.61,5.75c-0.32,0.67-0.79,1.32-1.56,1.84c-1.63,1.09-3.31,2.1-5,3.1
			c-0.44,0.33-0.87,0.66-1.31,0.99c-5.51,5.29-11.17,10.85-17.99,14.45c-0.66,0.79-1.53,1.33-2.54,1.68
			c-2.57,2.38-5.13,4.77-7.59,7.26c-5.97,6.03-10.84,12.76-17.68,18.08c-1.25,0.98-2.78,1.2-4.16,0.93
			c-0.76,0.72-1.53,1.43-2.29,2.15c-4.83,4.66-9.2,9.69-13.93,14.41c-4.62,4.61-8.97,9.33-13.25,14.21
			c-3.92,4.48-7.3,9.37-11.69,13.49c-2.08,1.95-5.02,1.31-6.62-0.35c-1.67,2.1-3.35,4.24-5.07,6.41c0,0,0,0,0,0.01
			c-8.29,12.05-17.78,23.91-29.44,33.43c-0.14,0.33-0.3,0.66-0.55,0.98c-0.3,0.39-0.63,0.73-0.94,1.1c0,0,0,0,0,0
			c-0.1,0.11-0.2,0.23-0.3,0.34c-0.56,0.65-1.1,1.31-1.69,1.93c-0.77,0.87-1.53,1.75-2.29,2.62c-0.11,0.2-0.29,0.52-0.4,0.73
			c-1.36,4.42-4.9,7.25-8.12,11.04c-3.81,4.47-7.52,9.02-11.16,13.6c-8.18,10.29-16.15,20.71-23.75,31.37
			c-0.53,0.74-1.15,1.3-1.82,1.7c-3.64,5.32-7.27,10.65-10.96,15.95c-2.22,3.19-4.39,6.39-6.74,9.49c0,0.84-0.26,1.71-0.91,2.53
			c-4.07,5.14-7.28,10.9-10.87,16.32c-3.77,5.69-7.56,11.36-11.06,17.2c-3.64,6.07-7.59,11.9-11.43,17.84
			c-0.81,1.26-1.59,2.52-2.36,3.78c0.36,1.12,0.3,2.4-0.45,3.74c-0.51,0.91-1.1,1.77-1.65,2.66c-1.28,2.26-2.38,4.61-3.73,6.83
			c-0.48,0.79-0.95,1.58-1.5,2.32c0,0-0.21,0.24-0.47,0.54c-0.15,0.47-0.35,0.92-0.53,1.38c0.15,0.95,0,1.91-0.64,2.69
			c-0.45,0.55-0.84,1.14-1.27,1.71c-0.35,1.32-0.88,2.56-1.56,3.78c0.07,0.17,0.15,0.34,0.2,0.53c1.03,4.26-1.64,6.56-3.68,10.12
			c-2.19,3.82-4.31,7.66-6.51,11.47c-0.48,0.97-1.25,2.54-1.73,3.5c-1.08,2.39-2.51,4.72-3.77,6.86c-0.75,1.28-1.43,2.6-2.12,3.9
			c-1.44,2.83-2.88,5.67-4.32,8.51c-0.47,0.92-1.11,1.53-1.84,1.92c-1.01,2.03-2.05,4.06-3.1,6.07c0.15,0.69,0.09,1.44-0.27,2.26
			c-0.17,0.38-0.36,0.75-0.53,1.13c0,0,0,0,0.01,0c-0.02,0.03-0.03,0.05-0.05,0.08c-2.9,6.28-6.09,12.44-9.07,18.7
			c-2.74,6.93-5.7,13.78-8.72,20.62c-1.71,4.53-3.57,9.03-5.46,13.5c-0.05,0.17-0.06,0.33-0.14,0.51c-0.27,0.63-0.57,1.24-0.85,1.87
			c-0.27,0.64-0.53,1.28-0.8,1.92c-0.05,0.2-0.09,0.41-0.14,0.62c0.12,0.49,0.17,1.02,0.06,1.61c1.26,0.98,1.99,2.48,1.41,4.2
			c-0.23,0.67-0.51,1.32-0.76,1.98c0.1,0.53,0.1,1.09-0.05,1.67c-0.84,3.41-2.49,6.35-3.93,9.55c-1.38,3.08-2.62,5.89-4.57,8.65
			c-2.21,5.09-4.09,10.3-6.47,15.32c-0.59,3.7-1.93,7.37-2.87,10.99c-0.15,0.58-0.29,1.16-0.43,1.75c0.32,0.78,0.38,1.69,0.02,2.73
			c-0.83,2.39-1.6,4.8-2.41,7.21c0.07,0.34,0.12,0.7,0.11,1.1c-0.15,7.52-3.14,14.86-5.98,22.04c-0.35,1.48-0.75,2.97-1.15,4.45
			c-0.88,3.96-2.12,7.9-3.04,11.79c-0.39,1.66-0.84,3.31-1.26,4.96c1.54,1.02,2.64,2.78,2.33,4.66c-0.45,2.77-0.88,5.55-1.67,8.27
			c-0.74,2.55-2.04,4.91-2.74,7.46c-0.78,2.82-1.69,5.6-2.66,8.36c-0.02,0.25-0.05,0.49-0.12,0.75c-0.88,3.39-1.78,6.77-2.68,10.16
			c-1.33,6.39-2.7,12.78-4.42,19.09c-0.2,0.75-0.54,1.35-0.95,1.83c-0.18,0.85-0.35,1.71-0.52,2.56c0.75,0.94,1.1,2.18,0.71,3.65
			c-0.15,0.56-0.3,1.12-0.45,1.68c1.03,1.18,1.6,2.76,1.29,4.17c-1.39,6.36-2.73,12.72-4.06,19.09c-0.39,3.64-0.88,7.26-1.62,10.78
			c-0.1,0.46-0.28,0.87-0.5,1.24c-0.15,0.76-0.32,1.52-0.51,2.27c0.02,1.37-0.07,2.76-0.37,4.17c-1.05,4.96,0.09,10.19,0.03,15.24
			c-0.06,4.38-0.69,8.64-1.46,12.94c-0.22,5.29-0.6,10.56-1.32,15.83c0,0.03,0.01,0.05,0.01,0.08c1.21,3.14,0.75,6.31,2.75,9.33
			c0.35,0.53,0.75,0.95,1.18,1.3c0.67-0.14,1.34-0.28,2.02-0.41c0.4-0.14,0.8-0.28,1.16-0.46c1.76-0.88,3.5-2.11,5.23-3.07
			c1.49-0.83,2.81-1.56,4.12-2.29c1.1-1.7,2.03-3.46,3.19-5.17c1.71-2.53,3.67-4.28,6.21-5.86c1.14-1.47,2.62-2.6,4.47-3.4
			c1.85-1.54,4.02-3.17,6.39-3.82c0.33-0.18,0.81-0.45,1.14-0.63c2.3-2.29,5.23-4.15,8.11-5.89c-0.28-1.45-0.09-2.97,0.78-4.27
			c1.64-2.47,3.8-3.93,6.06-5.85c2.06-1.75,3.72-3.57,6-5.14c1.04-0.72,2.2-1.02,3.35-1.02c1.53-1.15,3.26-2.1,5.09-2.62
			c1.89-1.83,3.82-3.62,5.72-5.43c1.74-1.65,3.65-3.58,5.77-4.89c0.02-0.04,0.04-0.07,0.06-0.11c0.04-1.49,0.66-3.06,2.11-4.53
			c7.22-7.34,15.81-13.32,23.45-20.26c0.6-0.54,1.22-0.92,1.85-1.23c0.15-0.16,0.27-0.32,0.44-0.47c2.41-2.15,4.84-4.26,7.28-6.37
			c0.1-1.29,0.67-2.56,1.94-3.61c1.44-1.21,2.97-2.25,4.53-3.23c0.05-0.04,0.11-0.08,0.17-0.12c0.21-1.09,0.79-2.17,1.84-3.12
			c3.77-3.4,8.06-7.75,13.13-9.83c-0.65-1.41-0.73-2.84-0.36-4.33c0.37-1.46,1.86-3.34,3.38-4c0.17-0.07,0.34-0.12,0.51-0.18
			c0.96-0.41,1.83-0.97,2.78-1.41c0.83-0.38,1.62-0.75,2.38-1.2c0.35-0.32,0.7-0.6,1.07-0.86c2.38-2.53,6.99-2.37,9.67-0.49
			c0.61,0.43,1.1,0.93,1.51,1.46c0.63,0.52,1.11,1.14,1.52,1.8c0.13,0.19,0.26,0.39,0.39,0.58c0.14,0.17,0.31,0.28,0.43,0.47
			c0.46,0.73,0.95,1.44,1.43,2.17c5.03,5.75,10.02,11.55,15.02,17.33c1.23,0.05,2.41,0.46,3.26,1.45c0.39,0.45,0.79,0.89,1.18,1.34
			c0.44,0.22,0.87,0.47,1.23,0.8c5.01,4.56,9.26,9.54,13.67,14.57c0.66,0.76,1.03,1.56,1.21,2.37c3.08,2.99,5.99,6.1,8.94,9.25
			c1.06,1.13,2.12,2.25,3.18,3.38c2.2,2.11,4.38,4.24,6.38,6.51c0.45,0.52,0.77,1.04,1.01,1.57c0.17,0.2,0.34,0.4,0.51,0.6
			c2.15-0.78,4.75-0.6,6.24,1.04c4.15,4.59,8.3,9.44,11.8,14.56c1.44,1.04,2.85,2.11,4.29,3.11c5.77,4.02,11.33,8.09,16.26,12.92
			c1.93,1.7,2.45,3.66,2.09,5.47c3.44,3.42,6.74,6.97,10.25,10.3c2.97,2.81,5.47,5.95,8.53,8.69c2.91,2.6,5.96,5,9.04,7.44
			c2.94,2.33,5.72,4.8,8.53,7.26c0.83,0.73,1.74,1.27,2.65,1.79C451.7,969.4,451.68,968.14,451.54,966.91z"/>
		<g>
			<polyline class="st3" points="448.14,970.51 307.56,827.16 157.02,961.37 			"/>
			<path class="st3" d="M157.02,961.52C175.9,435.3,647.4,23.03,1210.14,40.7"/>
			<path class="st3" d="M448.14,970.65c13.49-375.87,350.28-670.35,752.23-657.73"/>
			<polyline class="st3" points="1200.37,312.32 1354.83,180.93 1210.14,40.15 			"/>
			<polyline class="st3" points="448.14,970.51 307.56,827.16 157.02,961.37 			"/>
			<path id="SVGID_x5F_1_x5F_" class="st4" d="M229.98,1162.69c18.89-526.22,490.39-938.48,1053.13-920.82"/>
			<text>			<textPath  xlink:href="#SVGID_x5F_1_x5F_" startOffset="43.232%">
<tspan  style="font-family:'AppleSymbols'; font-size:197.4903px;">Design</tspan>			</textPath>
</text>
			<path class="st3" d="M448.14,970.65c13.49-375.87,350.28-670.35,752.23-657.73"/>
		</g>
	</g>
	<path id="SVGID_x5F_00000135688805383980485980000013902466981682990761_x5F_" class="st4" d="M1090.59,117.01
		c578.43,17.18,1031.6,446.13,1012.18,958.07"/>
	<text>	<textPath  xlink:href="#SVGID_x5F_00000135688805383980485980000013902466981682990761_x5F_" startOffset="48.515%">
<tspan  class="st7" style="font-size:131.6602px;">Build</tspan>	</textPath>
</text>
	<path id="SVGID_x5F_00000161610684310549279030000003703002199346651792_x5F_" class="st4" d="M2055.98,961.52
		c3.7,512.22-462.47,930.11-1041.21,933.38"/>
	<text>	<textPath  xlink:href="#SVGID_x5F_00000161610684310549279030000003703002199346651792_x5F_" startOffset="38.748%">
<tspan  class="st7" style="font-size:131.6602px;">Test</tspan>	</textPath>
</text>
	<text transform="matrix(-0.7 -0.6842 0.8022 -0.5971 598.2446 1541.2767)" class="st5 st6"> </text>
	<text transform="matrix(-0.6676 -0.7011 0.822 -0.5695 595.8857 1539.892)" class="st7 st8">L</text>
	<text transform="matrix(-0.603 -0.7315 0.8576 -0.5143 543.6387 1485.0609)" class="st7 st9">e</text>
	<text transform="matrix(-0.5356 -0.7587 0.8896 -0.4568 494.9846 1426.0787)" class="st7 st10">a</text>
	<text transform="matrix(-0.4771 -0.7791 0.9135 -0.4069 451.028 1363.1372)" class="st7 st11">r</text>
	<text transform="matrix(-0.4147 -0.7978 0.9353 -0.3537 423.0765 1318.4902)" class="st7 st12">n</text>
</g>
</svg>
