<?xml version="1.0" encoding="utf-8"?>
<!-- Generator: Adobe Illustrator 26.5.0, SVG Export Plug-In . SVG Version: 6.00 Build 0)  -->
<svg version="1.1" xmlns="http://www.w3.org/2000/svg" xmlns:xlink="http://www.w3.org/1999/xlink" x="0px" y="0px"
	 viewBox="0 0 2500 2000" style="enable-background:new 0 0 2500 2000;" xml:space="preserve">
<style type="text/css">
	.st0{fill:#662D91;}
	.st1{fill:none;stroke:#000000;stroke-miterlimit:10;}
	.st2{fill:#A16D67;fill-opacity:0;stroke:#000000;stroke-miterlimit:10;}
	.st3{fill:none;stroke:#000000;stroke-width:2;stroke-miterlimit:10;}
	.st4{fill:none;}
	.st5{font-family:'ArialMT';}
	.st6{font-size:9.3235px;}
	.st7{font-family:'SourceSansPro-Regular';}
	.st8{font-size:160.9013px;}
	.st9{font-size:162.5313px;}
	.st10{font-size:164.1002px;}
	.st11{font-size:165.3428px;}
	.st12{font-size:166.535px;}
	.st13{display:none;}
	.st14{display:inline;}
</style>
<g id="Layer_3">
	<path class="st0" d="M1199.14,1661.85c0.06,0-4.77,0.92-2.13,0.25c-1.38,0.33-2.63,0.7-4.09,0.86c-6.23,0.64-13.51,0.96-19.7,0
		c-3.61-0.57-7.21-1.29-10.82-1.89c-1.58-0.25-3.4-0.29-4.96-0.68c-1.83-0.68-2.25-0.84-1.23-0.51c-0.42-0.2-0.75-0.35-1.02-0.49
		c-1.17,0.94-2.65,1.52-4.42,1.52c-1.54-0.02-3.09-0.2-4.61-0.39c-0.1,0-0.21,0-0.33,0c-1.02,0-1.94-0.16-2.73-0.41
		c-0.83-0.12-1.67-0.21-2.5-0.27c-2.67-0.21-5.34-0.27-8.03-0.55c-6.46-0.64-12.68-2.17-19.06-3.14c-5.5-0.84-11.13-1.19-16.68-1.93
		c-5.65-0.76-11.2-2.25-16.74-3.46c-5.63-1.23-11.43-1.66-17.06-2.95c-5.69-1.29-11.45-2.29-17.2-3.46
		c-5.9-1.19-11.88-2.52-17.66-4.2c-4.86-1.41-9.28-3.48-13.82-5.47c-4.94-0.84-9.8-2.11-14.32-3.67c-2.96-1.02-5.82-2.29-8.63-3.61
		c-0.13-0.04-0.25-0.06-0.38-0.1c-4.57-1.09-8.99-2.52-13.34-4.2c-0.25-0.1-0.48-0.18-0.71-0.27c-1.98-0.51-3.94-1.15-6.03-1.74
		c-3.32-0.94-6.67-1.72-9.99-2.62c-7.28-1.93-14.47-4.06-21.45-6.78c-6.46-2.52-12.68-5.45-19.06-8.14
		c-5.94-2.5-12.13-5.12-17.81-8.09c-4.82-2.54-10.05-4.37-14.93-6.89c-2.88-1.48-6-3.05-8.65-4.75c-0.92-0.59-1.92-0.98-2.88-1.5
		c-0.02-0.02-1.06-0.59-1.5-0.86c-0.21-0.06-0.4-0.12-0.42-0.12c-5.8-1.6-10.9-4.9-16.24-7.38c-2.75-1.27-5.15-2.97-7.8-4.37
		c-2.54-1.35-5.05-2.75-7.55-4.18c-10.55-6-21.52-11.37-31.92-17.5c-5.44-3.22-10.76-6.68-15.66-10.59
		c-0.17-0.14-0.31-0.27-0.48-0.41c-0.17-0.02-0.35-0.04-0.52-0.06c-2.84-0.51-5.02-2.4-7.34-3.81c-2.84-1.72-5.55-3.65-8.09-5.72
		c-0.48-0.39-0.98-0.76-1.5-1.11c-2.06-0.76-4.07-1.6-5.82-2.64c-2.15-1.27-4.46-2.29-6.46-3.91c-2.23-1.8-3-3.71-3.63-5.94
		c-0.17-0.57-0.23-1.17-0.21-1.78c-2.96-1.88-5.9-3.75-8.8-5.7c-10.7-7.21-20.37-15.23-29.86-23.71
		c-5.55-4.96-10.95-10.04-16.2-15.25c-0.75-0.59-1.48-1.19-2.23-1.8c-0.94-0.31-1.86-0.8-2.67-1.56c-1.58-1.48-3.13-2.99-4.65-4.53
		c-6-5.2-11.68-10.72-16.3-16.85c-1.04-1.09-2.06-2.21-3.04-3.34c-1.27-0.25-2.46-0.8-3.4-1.62c-1.4-1.46-2.86-2.87-4.27-4.32
		c-0.92-0.82-1.81-1.64-2.73-2.5c-1.11-1.04-2.19-2.09-3.17-3.22c-0.73-0.84-1.44-1.68-2.13-2.54c-0.02-0.02-0.04-0.02-0.08-0.06
		c-0.23-0.2-0.44-0.45-0.63-0.66c-1.23-1.31-2.23-2.66-3.13-4.04c-0.4-0.12-0.79-0.25-1.23-0.43c-0.35-0.14-0.67-0.23-0.98-0.41
		c-0.25-0.18-0.5-0.35-0.75-0.53c-0.27-0.16-0.52-0.35-0.75-0.55c-0.71-0.68-1.15-1.29-1.52-1.99l0,0c0,0,0,0,0-0.02
		c-0.19-0.37-0.38-0.76-0.56-1.21c-0.33-0.66-0.69-1.35-0.92-2.05c-0.08-0.29-0.13-0.61-0.17-0.9c-1.5-1.78-2.94-3.61-4.48-5.35
		c-0.38-0.43-0.71-0.9-1.06-1.33c-2.31-0.62-4.27-1.95-6.11-3.46c-0.69-0.35-1.33-0.78-1.98-1.35c-0.42-0.37-0.81-0.76-1.23-1.13
		c-0.56-0.39-1.11-0.8-1.54-1.29c-0.71-0.8-1.25-1.58-1.67-2.4c-1.67-1.93-3.19-3.96-4.5-5.8c-2.77-3.87-6.13-7.27-9.11-11
		c-2.94-3.71-6.07-7.28-8.61-11.25c-2.59-4.02-5.02-7.97-8.09-11.72c-2.96-3.61-6.38-7.4-8.09-11.13c-1.79-3.89-3.25-6.68-5.5-10.68
		c-0.73-1.29-2.02-2.87-3.25-4.75c-1.58-2.05-3.48-4.51-4.84-6.5c-4.75-6.89-9.84-13.61-13.47-21.07
		c-1.96-4.02-3.52-8.14-5.13-12.28c-1.42-3.63-3.29-6.97-4.86-10.55c-3.02-6.95-6.07-13.94-8.05-21.15
		c-1.77-0.53-3.32-1.58-4.61-3.3c-3.57-4.75-5.67-10.04-7.71-15.43c-1.46-3.85-2.9-8.2-1.98-12.07c-0.46-1.23-0.94-2.44-1.48-3.55
		c-0.56-0.96-1.15-1.89-1.67-2.87c-0.58-1.05-0.81-2.09-0.83-3.05c-0.08-0.2-0.19-0.41-0.25-0.61c-2.21-5.57-4.11-11.44-5.15-17.34
		c-0.38-1.23-0.69-2.48-1.02-3.73c-1.71-0.39-3.27-1.29-3.98-2.77c-1.77-3.81-2.92-7.73-3.88-11.72c-0.15-0.43-0.31-0.88-0.46-1.31
		c-1-2.81-1.77-5.78-1.92-8.75c-0.23-0.88-0.46-1.76-0.71-2.62c-0.35-1.25-0.19-2.52,0.31-3.67c-0.88-1.48-1.77-2.95-2.59-4.43
		c-1.71-3.07-3.4-6.25-2.88-9.34c-1.52-5.92-2.46-12.07-3.46-17.93c-0.13-0.76-0.27-1.54-0.42-2.32l0,0
		c-2.04-5.8-2.46-12.68-3.13-18.75c-0.25-2.36-0.5-4.75-0.75-7.11c-0.81-2.32-1.36-4.75-1.81-7.17c-1.19-3.54-2.08-7.17-2.77-10.82
		c-0.29-1.02-0.52-2.03-0.52-3.03c0-1.6,0.67-2.91,1.69-3.91c-0.79-3.22-1.13-6.41-1.63-9.71c-1.27-8.55-4.23-17.32-4.21-25.98
		c0.02-7.58-1.21-15.14-1.19-22.79c0-4.36-0.46-8.32,0.21-12.69c0.33-2.27,0.56-4.53,0.79-6.8c-0.75-1.25-0.98-2.71-1.06-4.14
		c-0.08-1.64,0.06-3.34,0.54-4.96c-0.71-0.57-1.25-1.27-1.5-2.15c-1-1.52-1.27-3.59-0.1-5.02c0.08-0.1,0.15-0.2,0.23-0.29
		c0.08-0.18,0.15-0.35,0.25-0.51c0.13-0.23,0.29-0.43,0.44-0.62c-6.28-5.45-12.2-10.25-16.6-18.48l-4.32-4.24
		c-2.84-4.28-10.36,0.25-6.76-6.64l-1.79-1.76c-3.25-1.31-0.81-6.68-4.11-8.34c-18.2-9.18-23.37-16.85-38.26-33.3l-4.82-9.28
		c-11.22-7.01-23.16-12.85-29.96-24.9c-1.73-3.05-6.98-6.21-8.44-9.22l0.29,0.68c-13.39-9.55-22.73-18.28-29.36-29.47
		c-0.9,0.29-2.52,2.7-3.44,2.97c-1.08,0.31-1.69,0.43-2.02,0.37c-0.13,0.06-0.21,0.16-0.33,0.21c-0.42,0.23-0.88,0.43-1.33,0.53
		c-0.13,0.02-0.27,0.04-0.4,0.06c-0.42,4.67-1.15,5.88-4.65,3.69c-2.46,2.6-5.07,4.94-7.78,7.15c0.63,1.56,0.44,3.4-1.11,4.79
		c-5.13,4.63-10.76,8.75-16.53,12.71c-2.13,2.54-4.27,5.08-6.4,7.62l-7.53,5.33c-1.04,1.07-2.08,2.17-3.21,3.2
		c-6.65,6.07-14.09,10.9-22.29,14.55c-1.36,1.62-2.86,3.4-4.52,5.37c-5.07,5.37-10.95,10.27-17.39,14.39
		c-5.65,5.33-11.32,10.68-16.99,16c-0.83,0.76-1.96,1.21-3.15,1.33c-2.06,1.74-4.13,3.48-6.23,5.18c-4.52,3.61-9.07,7.13-13.2,11.15
		c-2.08,2.01-4.21,3.93-6.09,6.09c-0.96,1.11-1.94,2.11-3.11,3.07c-0.48,0.39-0.96,0.74-1.48,1.07c-0.42,0.29-0.69,0.47-0.88,0.61
		c-0.02,0.02-0.04,0.06-0.06,0.08c-0.04,0.04-0.1,0.1-0.15,0.14c-1.02,1.02-2.25,1.45-3.46,1.48c-0.23,2.03-0.65,4.08-1.17,6.13
		c0.92,3.55,0.52,7.32-0.08,11.09c0.08,0.45,0.17,0.88,0.25,1.33c1.27,0.82,2.21,2.11,2.36,3.87c0.75,10.27-1.46,20.43-1.5,30.45
		c0,1.62-0.06,3.22-0.1,4.82c0.5,8.2,0.92,16.41,1.5,24.61c0.21,0.82,0.23,1.68,0.19,2.54c0.19,2.46,0.38,4.9,0.58,7.36
		c0.08,0.88-0.08,1.62-0.38,2.23c0.08,1.86,0.13,3.69,0.17,5.55c0.52,0.66,0.81,1.48,0.81,2.44c-0.02,2.5,0.04,5,0.08,7.5
		c3.32,9.78,4.57,20.35,6.05,30.37c1.88,12.6,3.88,25.16,5.34,37.79c1.44,12.46,3.88,24.8,5.19,37.3c0.23,2.13,0.44,4.28,0.67,6.41
		c0.69,2.97,1.42,5.92,2.08,8.87c0.73,0.51,1.31,1.23,1.65,2.19c2.08,6.25,3.32,12.69,4.67,19.1c0.75,3.55,1.5,7.11,2.19,10.68
		c1.46,4.47,2.04,9.3,3.06,13.81c0.27,1.23,0.6,2.42,0.9,3.65c0.79,2.42,1.58,4.84,2.42,7.27c0.67,1.95,1.31,3.91,1.96,5.86
		c0.27,0.74,0.56,1.48,0.83,2.21c1.04,2.73,1.9,5.51,3,8.03c0.96,2.17,1.79,4.98,2.61,6.78c1.27,2.77,2.4,5.53,2.46,8.57
		c0,0.25-0.04,0.47-0.08,0.7c0.1,0.72,0.19,1.46,0.21,2.21c0,0.16-0.02,0.29-0.02,0.45c0.08,0.25,0.15,0.51,0.23,0.76
		c2.63,6.04,5.05,12.13,7.78,18.12c1.65,3.63,3.23,7.28,4.8,10.94c1.38,3.22,3.13,6.39,4.32,9.67c3.63,5.51,5.05,12.4,7.49,18.42
		c1.5,3.69,3.15,7.34,4.59,11.05c0.94,2.44,2.15,4.67,3.27,6.95c1.75,0.35,3.4,1.43,4.25,3.38c1.04,2.34,1.65,4.82,2.59,7.23
		c1.08,2.77,2.61,5.45,4.04,8.09c0.6,1.13,0.75,2.23,0.58,3.22c0.44,0.82,0.83,1.64,1.25,2.46c1.54,1.89,3.11,3.77,4.48,5.8
		c1.96,2.89,3.75,5.7,5.3,8.73c2.15,2.38,4,5.04,4.9,7.97c2.69,3.5,4.71,7.46,7.07,11.21c1.38,2.19,2.11,4.22,3.11,6.54
		c-0.23-0.78,0-0.35,0.65,1.29c-0.42-0.8-0.25-0.39,0.54,1.21c0.23,0.76,0.33,1.62,0.42,2.46c0.85,1.46,1.65,2.97,2.29,4.53
		c0.56,1.33,0.69,2.56,0.79,3.85c0.17,0.37,0.23,0.78,0.33,1.17c4.65,6.87,9.59,13.59,14.3,20.45c0.29,0.18,0.56,0.37,0.79,0.62
		c4.63,4.92,8.28,10.49,12.11,15.94c3.82,5.45,8.26,10.37,10.84,16.44c0.4,0.92,0.21,1.93-0.25,2.83c1,1.39,1.98,2.77,3,4.1
		c0.46,0.61,0.92,1.19,1.38,1.8c2.69,3.3,5.42,6.6,8.3,9.78c4.88,5.39,9.97,10.61,14.97,15.9c1.36,1.43,1.65,2.99,1.29,4.36
		c0.02,0.04,0.06,0.06,0.08,0.1c0.04,0.04,0.1,0.12,0.25,0.29c0.73,0.84,1.46,1.68,2.17,2.52c0.44,0.51,0.85,1.04,1.29,1.56
		c0.65,0.62,1.33,1.25,1.98,1.89c2.27,2.27,4.5,4.49,6.55,6.91c0.71,0.84,1.42,1.7,2.13,2.56c0.13,0.14,0.35,0.35,0.44,0.41
		c-0.04-0.04-0.08-0.08-0.13-0.12c0.19,0.16,0.19,0.18,0.13,0.12c0.31,0.29,0.58,0.59,0.85,0.92c1.58,1.89,1.94,3.96,1.48,6.27
		c-0.02,0.08-0.06,0.14-0.08,0.21c1.08,1.35,2.19,2.68,3.27,4.02c9.59,6.62,18.1,14.92,25.42,24.53c2.4,3.14,4.46,6.37,6.23,9.63
		c0.73,0.29,1.44,0.72,2,1.43c1.11,1.37,2.13,2.79,3.15,4.22c0.42,0.53,0.88,1.02,1.31,1.52c5.75,5,11.78,10.14,15.7,16.33
		c0.85,0.61,1.44,1.39,1.81,2.3c2.59,2.34,5.19,4.67,7.88,6.89c6.55,5.41,13.87,9.84,19.64,16.05c1.06,1.13,1.31,2.52,1,3.77
		c0.79,0.68,1.54,1.39,2.34,2.07c5.07,4.39,10.53,8.36,15.66,12.66c5,4.2,10.13,8.14,15.43,12.03c4.86,3.55,10.17,6.64,14.66,10.62
		c2.13,1.89,1.42,4.55-0.38,6.02c2.27,1.52,4.61,3.05,6.96,4.61l0,0c13.09,7.52,25.98,16.15,36.32,26.74
		c0.35,0.12,0.71,0.27,1.06,0.49c0.42,0.27,0.79,0.57,1.19,0.86l0,0c0.13,0.1,0.25,0.18,0.38,0.27c0.71,0.51,1.42,1,2.11,1.54
		c0.94,0.7,1.9,1.39,2.86,2.09c0.15,0.1,0.29,0.18,0.42,0.27c5.02,1.17,8.13,4.45,12.36,7.46c4.86,3.46,9.8,6.84,14.78,10.14
		c11.18,7.42,22.5,14.67,34.07,21.56c0.79,0.47,1.42,1.04,1.86,1.66c5.78,3.3,11.57,6.6,17.33,9.94c3.46,2.01,6.94,3.98,10.3,6.11
		c0.92,0,1.86,0.23,2.75,0.84c5.61,3.71,11.88,6.64,17.81,9.92c6.51,3.61,13.01,7.17,19.66,10.53c6.21,3.14,12.22,6.54,18.33,9.84
		c1.36,0.74,2.73,1.45,4.11,2.15c1.21-0.33,2.61-0.27,4.07,0.41c0.98,0.47,1.92,1,2.9,1.5c2.46,1.15,5,2.17,7.42,3.38
		c0.85,0.43,1.71,0.86,2.52,1.37c0,0,0.27,0.2,0.58,0.43c0.5,0.14,1,0.31,1.5,0.49c1.02-0.14,2.08,0,2.92,0.59
		c0.6,0.41,1.23,0.76,1.86,1.15c1.44,0.31,2.77,0.8,4.11,1.43c0.19-0.06,0.38-0.14,0.58-0.18c4.63-0.94,7.13,1.48,10.99,3.34
		c4,1.91,8.03,3.77,12.03,5.7c0.85,0.41,1.73,0.8,2.59,1.21c3.17,1,6.3,2.62,9.11,4c1.4,0.68,2.81,1.29,4.23,1.93
		c3.09,1.31,6.17,2.62,9.26,3.93c1,0.43,1.67,1.02,2.08,1.66c2.21,0.92,4.4,1.86,6.59,2.81c0.75-0.14,1.56-0.08,2.46,0.25
		c0.42,0.16,0.81,0.33,1.23,0.49l0,0c0.02,0.02,0.06,0.02,0.08,0.04c6.82,2.64,13.51,5.53,20.31,8.24
		c7.53,2.48,14.97,5.18,22.39,7.91c4.92,1.54,9.8,3.24,14.68,4.96c0.19,0.04,0.35,0.06,0.54,0.12c0.69,0.25,1.36,0.51,2.02,0.76
		c0.69,0.23,1.4,0.49,2.08,0.72c0.23,0.04,0.44,0.08,0.67,0.14c0.54-0.12,1.11-0.16,1.75-0.06c1.06-1.15,2.69-1.82,4.57-1.27
		c0.73,0.21,1.44,0.47,2.15,0.68c0.56-0.1,1.19-0.08,1.81,0.04c3.71,0.76,6.9,2.27,10.38,3.57c3.36,1.25,6.4,2.38,9.4,4.16
		c5.53,2.01,11.2,3.71,16.64,5.88c4.02,0.53,8.01,1.76,11.95,2.62c0.63,0.14,1.27,0.25,1.9,0.39c0.85-0.29,1.83-0.35,2.96-0.02
		c2.61,0.76,5.21,1.45,7.82,2.19c0.38-0.06,0.77-0.12,1.21-0.1c8.17,0.14,16.14,2.85,23.94,5.43c1.61,0.31,3.23,0.68,4.84,1.04
		c4.29,0.8,8.57,1.91,12.82,2.75c1.81,0.35,3.59,0.76,5.38,1.13c1.11-1.41,3.02-2.4,5.07-2.11c3,0.41,6.03,0.8,8.99,1.52
		c2.77,0.68,5.34,1.86,8.11,2.48c3.06,0.7,6.09,1.54,9.09,2.42c0.27,0.02,0.54,0.04,0.81,0.1c3.69,0.8,7.36,1.62,11.03,2.42
		c6.94,1.21,13.89,2.46,20.75,4c0.81,0.18,1.46,0.49,1.98,0.86c0.92,0.16,1.86,0.31,2.77,0.47c1.02-0.68,2.38-1,3.96-0.64
		c0.6,0.14,1.21,0.27,1.83,0.41c1.29-0.94,3-1.46,4.52-1.17c6.9,1.27,13.82,2.48,20.75,3.69c3.96,0.35,7.88,0.8,11.72,1.46
		c0.5,0.08,0.94,0.25,1.36,0.45c0.83,0.14,1.65,0.29,2.46,0.47c1.48-0.02,3,0.06,4.52,0.33c5.38,0.96,11.07-0.08,16.55-0.02
		c4.75,0.06,9.38,0.62,14.05,1.33c5.48,0.2,10.95,0.51,16.39,1.11c0.29,0.04,0.58,0.06,0.9,0.08c3.42-1.09,6.86-0.68,10.13-2.5
		c0.58-0.31,1.04-0.68,1.42-1.07c-0.17-0.61-0.31-1.21-0.46-1.84c-0.15-0.35-0.31-0.72-0.5-1.05c-0.96-1.6-2.29-3.18-3.34-4.75
		c-0.9-1.35-1.69-2.56-2.48-3.73c-1.86-1-3.75-1.84-5.61-2.89c-2.75-1.56-4.65-3.34-6.38-5.64c-1.61-1.04-2.81-2.38-3.69-4.06
		c-1.67-1.68-3.44-3.65-4.15-5.8c-0.21-0.31-0.42-0.62-0.58-0.96c-2.54-2.11-4.59-4.8-6.51-7.44c-1.58,0.25-3.23,0.08-4.65-0.7
		c-2.69-1.48-4.27-3.46-6.36-5.51c-1.9-1.88-3.88-3.38-5.59-5.45c-0.77-0.96-1.11-1.99-1.11-3.05c-1.25-1.39-2.27-2.95-2.86-4.63
		c-1.98-1.72-3.94-3.48-5.9-5.2c-1.65-1.46-3.57-3.05-4.96-4.79c-0.17-0.16-0.31-0.33-0.46-0.51c-1.63-0.04-3.32-0.61-4.92-1.91
		c-7.96-6.56-14.47-14.35-22.02-21.29c-0.58-0.55-1-1.11-1.33-1.68c-0.17-0.14-0.35-0.23-0.52-0.39c-2.34-2.19-4.63-4.39-6.92-6.62
		c-1.4-0.1-2.77-0.61-3.92-1.76c-1.31-1.31-2.44-2.7-3.5-4.12c-0.04-0.06-0.08-0.1-0.13-0.16c-1.19-0.2-2.36-0.7-3.4-1.68
		c-3.69-3.42-8.42-7.32-10.68-11.91c-1.54,0.59-3.09,0.66-4.71,0.33c-1.58-0.33-3.63-1.7-4.34-3.07c-0.08-0.16-0.12-0.31-0.21-0.47
		c-0.44-0.88-1.06-1.66-1.52-2.52c-0.42-0.74-0.81-1.46-1.31-2.17c-0.35-0.31-0.65-0.64-0.94-0.98c-2.75-2.17-2.59-6.35-0.52-8.79
		c0.46-0.55,1.02-1,1.58-1.37c0.56-0.57,1.25-1.02,1.96-1.39c0.21-0.12,0.42-0.23,0.63-0.35c0.19-0.14,0.31-0.29,0.52-0.39
		c0.79-0.41,1.56-0.86,2.36-1.29c6.25-4.57,12.55-9.1,18.83-13.63c0.06-1.11,0.5-2.19,1.56-2.97c0.48-0.35,0.96-0.72,1.46-1.07
		c0.23-0.41,0.5-0.78,0.85-1.11c4.94-4.55,10.36-8.42,15.82-12.4c0.83-0.61,1.69-0.94,2.56-1.09c3.25-2.79,6.63-5.43,10.05-8.11
		c1.23-0.96,2.44-1.93,3.67-2.89c2.29-1.99,4.61-3.98,7.07-5.8c0.56-0.41,1.13-0.7,1.71-0.92c0.21-0.16,0.44-0.31,0.65-0.47
		c-0.85-1.95-0.65-4.32,1.13-5.66c4.98-3.77,10.26-7.54,15.82-10.72c1.13-1.31,2.29-2.6,3.38-3.89c4.36-5.23,8.8-10.29,14.03-14.77
		c1.86-1.76,3.98-2.23,5.94-1.89c3.71-3.12,7.57-6.11,11.2-9.32c3.04-2.7,6.46-4.96,9.44-7.75c2.84-2.64,5.44-5.41,8.09-8.2
		c2.52-2.68,5.21-5.2,7.88-7.75c0.79-0.76,1.38-1.58,1.94-2.4C1201.85,1661.71,1200.48,1661.73,1199.14,1661.85z"/>
</g>
<g id="Layer_1">
	<g>
		<polyline class="st1" points="1213.38,1665.32 1055.8,1793.21 1203.33,1930.16 		"/>
		<path class="st1" d="M1203.49,1930.17c-578.43-17.18-1031.6-446.13-1012.18-958.07"/>
		<path class="st1" d="M1213.53,1665.32c-413.16-12.27-736.86-318.66-722.99-684.34"/>
		<polyline class="st1" points="489.88,980.99 345.46,840.47 190.71,972.1 		"/>
		<polyline class="st1" points="1213.38,1665.32 1055.8,1793.21 1203.33,1930.16 		"/>
		<path class="st1" d="M1203.49,1930.17c-578.43-17.18-1031.6-446.13-1012.18-958.07"/>
		<path class="st1" d="M1213.53,1665.32c-413.16-12.27-736.86-318.66-722.99-684.34"/>
	</g>
	<g>
		<polyline class="st2" points="1260.15,1663.55 1107.28,1796.89 1262.06,1928.49 		"/>
		<polyline class="st2" points="2003.87,996.99 2154.55,1131.23 2303.27,995.3 		"/>
		<path class="st2" d="M2303.27,995.16c3.7,512.22-462.47,930.11-1041.21,933.38"/>
		<path class="st2" d="M2003.87,996.85c2.64,365.87-330.34,664.36-743.72,666.7"/>
	</g>
	<polyline class="st1" points="1286.62,275.45 1444.2,147.56 1296.67,10.61 	"/>
	<path class="st1" d="M1296.51,10.6c578.43,17.18,1031.6,446.13,1012.18,958.07"/>
	<path class="st1" d="M1286.47,275.45c413.16,12.27,736.86,318.66,722.99,684.34"/>
	<polyline class="st1" points="2010.11,959.78 2154.54,1100.3 2309.29,968.67 	"/>
	<polyline class="st1" points="1286.62,275.45 1444.2,147.56 1296.67,10.61 	"/>
	<path class="st1" d="M1296.51,10.6c578.43,17.18,1031.6,446.13,1012.18,958.07"/>
	<path class="st1" d="M1286.47,275.45c413.16,12.27,736.86,318.66,722.99,684.34"/>
	<g>
		<polyline class="st3" points="489.17,942.05 348.59,798.7 198.05,932.91 		"/>
		<path class="st3" d="M198.05,933.06C216.94,406.84,688.44-5.43,1251.17,12.23"/>
		<path class="st3" d="M489.17,942.19c13.49-375.87,350.28-670.35,752.23-657.73"/>
		<polyline class="st3" points="1241.4,283.86 1395.86,152.47 1251.17,11.69 		"/>
		<polyline class="st3" points="489.17,942.05 348.59,798.7 198.05,932.91 		"/>
		<path id="SVGID_x5F_1_x5F_" class="st4" d="M271.01,1134.23C289.9,608.01,761.4,195.75,1324.14,213.41"/>
		<text>		<textPath  xlink:href="#SVGID_x5F_1_x5F_" startOffset="43.232%">
<tspan  style="font-family:'AppleSymbols'; font-size:197.4903px;">Design</tspan>		</textPath>
</text>
		<path class="st3" d="M489.17,942.19c13.49-375.87,350.28-670.35,752.23-657.73"/>
	</g>
	<path id="SVGID_x5F_00000155147460563490668920000008374780665294391464_x5F_" class="st4" d="M1131.62,88.55
		c578.43,17.18,1031.6,446.13,1012.18,958.07"/>
	<text>	<textPath  xlink:href="#SVGID_x5F_00000155147460563490668920000008374780665294391464_x5F_" startOffset="48.515%">
<tspan  class="st7" style="font-size:131.6602px;">Build</tspan>	</textPath>
</text>
	<path id="SVGID_x5F_00000178165513204173199760000011935526683980821376_x5F_" class="st4" d="M2097.02,933.06
		c3.7,512.22-462.47,930.11-1041.21,933.38"/>
	<text>	<textPath  xlink:href="#SVGID_x5F_00000178165513204173199760000011935526683980821376_x5F_" startOffset="38.748%">
<tspan  class="st7" style="font-size:131.6602px;">Test</tspan>	</textPath>
</text>
	<text transform="matrix(-0.7 -0.6842 0.8022 -0.5971 639.2775 1512.8153)" class="st5 st6"> </text>
	<text transform="matrix(-0.6676 -0.7011 0.822 -0.5695 636.9186 1511.4305)" class="st7 st8">L</text>
	<text transform="matrix(-0.603 -0.7315 0.8576 -0.5143 584.6716 1456.5995)" class="st7 st9">e</text>
	<text transform="matrix(-0.5356 -0.7587 0.8896 -0.4568 536.0175 1397.6173)" class="st7 st10">a</text>
	<text transform="matrix(-0.4771 -0.7791 0.9135 -0.4069 492.0609 1334.6758)" class="st7 st11">r</text>
	<text transform="matrix(-0.4147 -0.7978 0.9353 -0.3537 464.1093 1290.0288)" class="st7 st12">n</text>
</g>
<g id="Layer_2" class="st13">
	<g class="st14">
		<polyline class="st2" points="1260,1663.48 1107.14,1796.82 1261.92,1928.42 		"/>
		<polyline class="st2" points="2003.73,996.92 2154.41,1131.16 2303.13,995.23 		"/>
		<path class="st2" d="M2303.13,995.09c3.7,512.22-462.47,930.11-1041.21,933.38"/>
		<path class="st2" d="M2003.73,996.78c2.64,365.87-330.34,664.36-743.72,666.7"/>
	</g>
</g>
</svg>
